<svg xmlns="http://www.w3.org/2000/svg" viewBox="0 0 512 512"><title>Link</title><g id="Link"><g id="Link-2" data-name="Link"><path d="M256,73.8247a182.177,182.177,0,0,0-182.18,182.18c0,100.6083,81.5625,182.1708,182.18,182.1708,100.6082,0,182.18-81.5625,182.18-182.1708A182.1828,182.1828,0,0,0,256,73.8247Zm91.529,149.7573-44.5518,44.5518a25.59,25.59,0,0,1-36.1845.009l-1.74-1.75-4.7466,4.7466,1.7406,1.7307a25.6271,25.6271,0,0,1,0,36.1935l-44.5428,44.5518a25.59,25.59,0,0,1-36.1935,0l-16.84-16.848a25.6173,25.6173,0,0,1,0-36.1854l44.5518-44.5509a25.5879,25.5879,0,0,1,36.1935,0l1.7307,1.74,4.7466-4.7376-1.7406-1.74a25.6162,25.6162,0,0,1,0-36.1845l44.5608-44.5518a25.5684,25.5684,0,0,1,36.1845-.009l16.84,16.8489A25.608,25.608,0,0,1,347.5291,223.582Z"/><path d="M224.9662,279.7528l8.613-8.613-1.7406-1.7406a6.6727,6.6727,0,0,0-9.4482,0l-44.56,44.5428a6.7048,6.7048,0,0,0,0,9.4572l16.848,16.8489a6.8567,6.8567,0,0,0,9.4572,0l44.5518-44.5518a6.7157,6.7157,0,0,0,0-9.4662l-1.7406-1.7316-8.622,8.6139Z"/><path d="M317.3305,183.9172a6.6728,6.6728,0,0,0-9.4662,0L263.3125,228.46a6.7048,6.7048,0,0,0,0,9.4572l1.7406,1.74,13.2183-13.21,13.36,13.36-13.21,13.2192,1.7406,1.7487a6.8638,6.8638,0,0,0,9.4572-.009L334.17,210.2134a6.7037,6.7037,0,0,0,0-9.4563Z"/></g></g></svg>